<svg width="22" height="22" viewBox="0 0 22 22" fill="none" xmlns="http://www.w3.org/2000/svg">
<g clip-path="url(#clip0_44_637)">
<path d="M15.4701 0.093497C15.6047 0.171512 15.7088 0.292858 15.7655 0.437711C15.8222 0.582564 15.8281 0.742361 15.7822 0.890997L13.3059 8.9375H17.875C18.0093 8.93744 18.1406 8.97671 18.2528 9.05045C18.3651 9.1242 18.4532 9.22919 18.5064 9.35246C18.5597 9.47574 18.5756 9.6119 18.5524 9.74414C18.5291 9.87639 18.4676 9.99892 18.3755 10.0966L7.3755 21.7841C7.26906 21.8973 7.12743 21.9711 6.97369 21.9935C6.81994 22.0158 6.66315 21.9855 6.52887 21.9073C6.39459 21.8292 6.29074 21.7079 6.23424 21.5632C6.17774 21.4184 6.17193 21.2588 6.21775 21.1104L8.69412 13.0625H4.125C3.99072 13.0626 3.85937 13.0233 3.74716 12.9495C3.63494 12.8758 3.54678 12.7708 3.49355 12.6475C3.44032 12.5243 3.42436 12.3881 3.44763 12.2558C3.4709 12.1236 3.53239 12.0011 3.6245 11.9034L14.6245 0.215872C14.7308 0.102846 14.8722 0.0291039 15.0257 0.0066363C15.1793 -0.0158313 15.3359 0.0142969 15.4701 0.092122V0.093497Z" fill="white"/>
</g>
<defs>
<clipPath id="clip0_44_637">
<rect width="22" height="22" fill="white"/>
</clipPath>
</defs>
</svg>
