<svg width="32" height="30" viewBox="0 0 32 30" fill="none" xmlns="http://www.w3.org/2000/svg">
<path d="M18.2138 0.00581576C10.1882 -0.227472 3.61316 6.58786 3.61316 15.0029H0.79079C0.0812564 15.0029 -0.265627 15.9027 0.238931 16.4193L4.63804 21.085C4.95339 21.4183 5.44218 21.4183 5.75752 21.085L10.1566 16.4193C10.2656 16.3018 10.3392 16.1529 10.3682 15.9913C10.3972 15.8296 10.3803 15.6626 10.3196 15.5111C10.2589 15.3596 10.1571 15.2305 10.0271 15.1401C9.89709 15.0497 9.74465 15.0019 9.58901 15.0029H6.76664C6.76664 8.50415 11.7807 3.25518 17.9615 3.3385C23.827 3.42181 28.7622 8.63746 28.841 14.8362C28.9199 21.3516 23.9531 26.6673 17.8038 26.6673C15.2653 26.6673 12.9159 25.7508 11.0554 24.2011C10.7534 23.9497 10.3745 23.8243 9.99071 23.8489C9.60696 23.8735 9.24514 24.0463 8.97408 24.3344C8.31184 25.0342 8.35915 26.2173 9.10022 26.8172C11.5775 28.8876 14.6456 30.0095 17.8038 29.9999C25.7664 29.9999 32.2152 23.0513 31.9945 14.5696C31.7895 6.75449 25.6087 0.22244 18.2138 0.00581576ZM16.4096 8.33752C15.7632 8.33752 15.2271 8.90407 15.2271 9.58727V15.7194C15.2271 16.3026 15.5267 16.8525 15.9997 17.1525L20.9191 20.2352C21.4867 20.5851 22.212 20.3852 22.5432 19.8019C22.8743 19.2021 22.6851 18.4355 22.1332 18.0856L19.8627 16.6609L17.5922 15.2362V9.57061C17.5922 8.90407 17.0561 8.33752 16.4096 8.33752Z" fill="#002882"/>
</svg>
