<svg width="24" height="30" viewBox="0 0 24 30" fill="none" xmlns="http://www.w3.org/2000/svg">
<path d="M6.66668 1.66663H17.3333M6.66668 1.66663H1.33334V8.33329L6.66668 12.3333M6.66668 1.66663V12.3333M17.3333 1.66663H22.6667V8.33329L17.3333 12.3333M17.3333 1.66663V12.3333M6.66668 14.3706C8.13188 13.0562 10.0316 12.3305 12 12.3333C14.0487 12.3333 15.918 13.1033 17.3333 14.3706M6.66668 14.3706C5.82675 15.1202 5.15493 16.039 4.69533 17.0666C4.23574 18.0943 3.99877 19.2075 4.00001 20.3333C4.00001 24.7513 7.58201 28.3333 12 28.3333C16.418 28.3333 20 24.7513 20 20.3333C20.0012 19.2075 19.7643 18.0943 19.3047 17.0666C18.8451 16.039 18.1733 15.1202 17.3333 14.3706M6.66668 14.3706V12.3333M17.3333 14.3706V12.3333" stroke="#CD7F32" stroke-width="2.4" stroke-linecap="round" stroke-linejoin="round"/>
<path d="M17.3333 1.66663H22.6667V8.33329L17.3333 12.3333M6.66668 1.66663H1.33334V8.33329L6.66668 12.3333M20 20.3333C20.0012 19.2075 19.7643 18.0943 19.3047 17.0666C18.8451 16.039 18.1733 15.1202 17.3333 14.3706C15.8681 13.0562 13.9684 12.3305 12 12.3333C10.0316 12.3305 8.13188 13.0562 6.66668 14.3706C5.82675 15.1202 5.15493 16.039 4.69533 17.0666C4.23574 18.0943 3.99877 19.2075 4.00001 20.3333C4.00001 24.7513 7.58201 28.3333 12 28.3333C16.418 28.3333 20 24.7513 20 20.3333Z" stroke="#CD7F32" stroke-width="2.4" stroke-linecap="round" stroke-linejoin="round"/>
<path d="M6.66666 1.66663H17.3333V14.3706C15.8681 13.0562 13.9684 12.3305 12 12.3333C10.0316 12.3305 8.13186 13.0562 6.66666 14.3706V1.66663Z" stroke="#CD7F32" stroke-width="2.4" stroke-linecap="round" stroke-linejoin="round"/>
</svg>
