<svg width="370" height="370" viewBox="0 0 370 370" fill="none" xmlns="http://www.w3.org/2000/svg">
<path d="M185 30.8334C154.509 30.8334 124.702 39.8751 99.3496 56.8151C73.997 73.7552 54.2371 97.8327 42.5686 126.003C30.9001 154.173 27.8471 185.171 33.7956 215.076C39.7442 244.982 54.4271 272.452 75.9877 294.012C97.5483 315.573 125.018 330.256 154.924 336.204C184.829 342.153 215.827 339.1 243.997 327.431C272.167 315.763 296.245 296.003 313.185 270.65C330.125 245.298 339.167 215.491 339.167 185C339.167 164.755 335.179 144.707 327.431 126.003C319.684 107.299 308.328 90.3034 294.012 75.9877C279.697 61.672 262.701 50.3162 243.997 42.5686C225.293 34.821 205.245 30.8334 185 30.8334V30.8334ZM185 308.333C160.607 308.333 136.762 301.1 116.48 287.548C96.1976 273.996 80.3897 254.734 71.0549 232.198C61.7201 209.661 59.2776 184.863 64.0365 160.939C68.7953 137.015 80.5417 115.039 97.7902 97.7902C115.039 80.5417 137.015 68.7954 160.939 64.0365C184.863 59.2777 209.661 61.7201 232.198 71.0549C254.734 80.3897 273.996 96.1976 287.548 116.48C301.1 136.762 308.333 160.607 308.333 185C308.333 217.71 295.339 249.08 272.21 272.21C249.08 295.339 217.71 308.333 185 308.333V308.333Z" fill="#B6C1DD"/>
<path d="M185 92.5001C170.689 92.5001 156.965 98.1849 146.846 108.304C136.727 118.423 131.042 132.148 131.042 146.458C131.042 150.547 132.666 154.468 135.557 157.36C138.448 160.251 142.37 161.875 146.458 161.875C150.547 161.875 154.468 160.251 157.36 157.36C160.251 154.468 161.875 150.547 161.875 146.458C161.875 141.885 163.231 137.414 165.772 133.611C168.313 129.808 171.925 126.844 176.15 125.094C180.376 123.343 185.026 122.885 189.511 123.778C193.997 124.67 198.118 126.872 201.352 130.107C204.586 133.341 206.788 137.461 207.681 141.947C208.573 146.433 208.115 151.082 206.365 155.308C204.614 159.533 201.65 163.145 197.848 165.686C194.045 168.227 189.574 169.583 185 169.583C180.911 169.583 176.99 171.208 174.099 174.099C171.208 176.99 169.583 180.911 169.583 185V215.833C169.583 219.922 171.208 223.843 174.099 226.735C176.99 229.626 180.911 231.25 185 231.25C189.089 231.25 193.01 229.626 195.901 226.735C198.792 223.843 200.417 219.922 200.417 215.833V197.95C212.875 194.312 223.598 186.293 230.61 175.371C237.622 164.45 240.45 151.362 238.572 138.52C236.695 125.678 230.238 113.947 220.393 105.49C210.549 97.0329 197.978 92.4195 185 92.5001Z" fill="#B6C1DD"/>
<path d="M185 277.5C193.514 277.5 200.417 270.598 200.417 262.083C200.417 253.569 193.514 246.667 185 246.667C176.486 246.667 169.583 253.569 169.583 262.083C169.583 270.598 176.486 277.5 185 277.5Z" fill="#B6C1DD"/>
</svg>
