<svg width="48" height="48" viewBox="0 0 48 48" fill="none" xmlns="http://www.w3.org/2000/svg">
<circle cx="24" cy="24" r="24" fill="#002882"/>
<path fill-rule="evenodd" clip-rule="evenodd" d="M23.7707 11C22.5493 11 21.5053 11.884 21.304 13.0893L21.1827 13.8213C21.149 14.0051 21.0676 14.1767 20.9466 14.319C20.8256 14.4613 20.6693 14.5693 20.4933 14.632C20.2779 14.7126 20.0653 14.8006 19.856 14.896C19.6872 14.9763 19.5002 15.0106 19.3139 14.9956C19.1276 14.9807 18.9485 14.9169 18.7947 14.8107L18.1907 14.3787C17.7091 14.0346 17.121 13.8725 16.5311 13.9214C15.9412 13.9702 15.3878 14.2267 14.9693 14.6453L14.6453 14.9693C14.2267 15.3878 13.9702 15.9412 13.9214 16.5311C13.8725 17.121 14.0346 17.7091 14.3787 18.1907L14.8107 18.7947C14.9169 18.9485 14.9807 19.1276 14.9956 19.3139C15.0106 19.5002 14.9763 19.6872 14.896 19.856C14.8006 20.0653 14.7126 20.2779 14.632 20.4933C14.5693 20.6693 14.4613 20.8256 14.319 20.9466C14.1767 21.0676 14.0051 21.149 13.8213 21.1827L13.088 21.3053C12.5046 21.4028 11.9746 21.704 11.5923 22.1554C11.21 22.6068 11.0001 23.1791 11 23.7707V24.2293C11 25.4507 11.884 26.4947 13.0893 26.696L13.8213 26.8173C14.196 26.88 14.4987 27.1507 14.632 27.5067C14.712 27.7227 14.8013 27.9347 14.896 28.144C14.9763 28.3128 15.0106 28.4998 14.9956 28.6861C14.9807 28.8724 14.9169 29.0515 14.8107 29.2053L14.3787 29.8093C14.0346 30.2909 13.8725 30.879 13.9214 31.4689C13.9702 32.0588 14.2267 32.6122 14.6453 33.0307L14.9693 33.3547C15.8333 34.2187 17.196 34.332 18.1907 33.6213L18.7947 33.1893C18.9485 33.0831 19.1276 33.0193 19.3139 33.0044C19.5002 32.9894 19.6872 33.0237 19.856 33.104C20.0653 33.1987 20.2773 33.2867 20.4933 33.368C20.8493 33.5013 21.12 33.804 21.1827 34.1787L21.3053 34.912C21.5053 36.116 22.548 37 23.7707 37H24.2293C25.4507 37 26.4947 36.116 26.696 34.9107L26.8173 34.1787C26.851 33.9949 26.9324 33.8233 27.0534 33.681C27.1744 33.5387 27.3307 33.4307 27.5067 33.368C27.7221 33.2873 27.9346 33.1993 28.144 33.104C28.3128 33.0237 28.4998 32.9894 28.6861 33.0044C28.8724 33.0193 29.0515 33.0831 29.2053 33.1893L29.8093 33.6213C30.2909 33.9654 30.879 34.1275 31.4689 34.0786C32.0588 34.0298 32.6122 33.7733 33.0307 33.3547L33.3547 33.0307C34.2187 32.1667 34.332 30.804 33.6213 29.8093L33.1893 29.2053C33.0831 29.0515 33.0193 28.8724 33.0044 28.6861C32.9894 28.4998 33.0237 28.3128 33.104 28.144C33.1987 27.9347 33.2867 27.7227 33.368 27.5067C33.5013 27.1507 33.804 26.88 34.1787 26.8173L34.912 26.696C35.4957 26.5985 36.0258 26.2971 36.4082 25.8454C36.7905 25.3937 37.0002 24.8211 37 24.2293V23.7707C37 22.5493 36.116 21.5053 34.9107 21.304L34.1787 21.1827C33.9949 21.149 33.8233 21.0676 33.681 20.9466C33.5387 20.8256 33.4307 20.6693 33.368 20.4933C33.2873 20.2779 33.1993 20.0653 33.104 19.856C33.0237 19.6872 32.9894 19.5002 33.0044 19.3139C33.0193 19.1276 33.0831 18.9485 33.1893 18.7947L33.6213 18.1907C33.9654 17.7091 34.1275 17.121 34.0786 16.5311C34.0298 15.9412 33.7733 15.3878 33.3547 14.9693L33.0307 14.6453C32.6122 14.2267 32.0588 13.9702 31.4689 13.9214C30.879 13.8725 30.2909 14.0346 29.8093 14.3787L29.2053 14.8107C29.0515 14.9169 28.8724 14.9807 28.6861 14.9956C28.4998 15.0106 28.3128 14.9763 28.144 14.896C27.9347 14.8007 27.7221 14.7126 27.5067 14.632C27.3307 14.5693 27.1744 14.4613 27.0534 14.319C26.9324 14.1767 26.851 14.0051 26.8173 13.8213L26.696 13.088C26.5985 12.5043 26.2971 11.9742 25.8454 11.5918C25.3937 11.2095 24.8211 10.9998 24.2293 11H23.7707ZM24 29C25.3261 29 26.5979 28.4732 27.5355 27.5355C28.4732 26.5979 29 25.3261 29 24C29 22.6739 28.4732 21.4021 27.5355 20.4645C26.5979 19.5268 25.3261 19 24 19C22.6739 19 21.4021 19.5268 20.4645 20.4645C19.5268 21.4021 19 22.6739 19 24C19 25.3261 19.5268 26.5979 20.4645 27.5355C21.4021 28.4732 22.6739 29 24 29Z" fill="white"/>
</svg>
