<svg width="169" height="218" viewBox="0 0 169 218" fill="none" xmlns="http://www.w3.org/2000/svg">
<path d="M55.9324 37.5263V44.1842L18.0427 25.4211L23.4555 0L55.9324 37.5263Z" fill="#002882"/>
<path d="M9.02135 36.3158L18.0427 27.2368L31.274 34.5L41.4982 63.5526L27.0641 58.1053L9.02135 36.3158Z" fill="#002882"/>
<path d="M43.9039 64.1579L33.6797 35.7105L55.9324 46L57.7367 65.3684L43.9039 64.1579Z" fill="#002882"/>
<path d="M68.5623 41.1579L57.7367 46L59.5409 64.7632L82.395 56.8947L68.5623 41.1579Z" fill="#002882"/>
<path d="M83.5979 38.1316L70.3665 40.5526L83.5979 55.0789V38.1316Z" fill="#002882"/>
<path d="M83.5979 78.0789V58.7105L60.7438 66.5789L83.5979 78.0789Z" fill="#002882"/>
<path d="M58.3381 67.1842L45.1068 65.9737C63.0541 71.8918 72.1892 75.9387 73.3737 95.0263L83.5979 87.7632V79.8947L58.3381 67.1842Z" fill="#002882"/>
<path d="M48.7153 73.2368C34.8826 85.9474 54.1281 109.553 71.5694 95.6316L69.1637 87.1579C64.3523 105.316 33.6797 88.9737 56.5338 73.2368H48.7153Z" fill="#002882"/>
<path d="M39.694 64.1579C41.8992 66.5789 46.4299 71.4211 46.911 71.4211C30.6726 91.3947 54.1281 111.368 72.7722 97.4474L73.9751 117.421L62.548 118.632L38.4911 104.711C35.9133 88.2295 35.0822 79.2251 39.694 64.1579Z" fill="#002882"/>
<path d="M25.8612 81.7105L36.6868 66.5789C34.909 72.111 34.118 75.3403 33.6797 81.7105H25.8612Z" fill="#002882"/>
<path d="M27.0641 59.9211L36.0854 63.5526L23.4555 81.7105L14.4342 78.6842L27.0641 59.9211Z" fill="#002882"/>
<path d="M23.4555 84.1316L13.2313 81.1053L10.2242 109.553H24.0569L23.4555 84.1316Z" fill="#002882"/>
<path d="M33.6797 83.5263L25.2598 84.1316L26.4626 109.553L36.6868 104.711C34.3923 96.6199 34.2255 91.9016 33.6797 83.5263Z" fill="#002882"/>
<path d="M52.9253 116.211L37.8897 106.526L28.2669 111.368L49.3167 128.921L52.9253 116.211Z" fill="#002882"/>
<path d="M26.4626 111.974H9.62278L19.847 142.237L46.911 129.526L26.4626 111.974Z" fill="#002882"/>
<path d="M37.8897 135.579L1.80427 177.342L18.6441 144.658L37.8897 135.579Z" fill="#002882"/>
<path d="M41.4982 172.5L40.2954 136.184L6.61566 176.132L41.4982 172.5Z" fill="#002882"/>
<path d="M4.81139 178.553L0 224.553H3.60854L41.4982 174.316L4.81139 178.553Z" fill="#002882"/>
<path d="M49.3167 131.342L83.5979 144.658V155.553L57.1352 176.132L43.9039 172.5L42.0996 134.368L49.3167 131.342Z" fill="#002882"/>
<path d="M58.9395 176.737L83.5979 157.974V185.816L58.9395 176.737Z" fill="#002882"/>
<path d="M57.1352 212.447L43.9039 174.316L83.5979 188.237V198.526L57.1352 212.447Z" fill="#002882"/>
<path d="M42.7011 176.132L54.7295 213.053L7.21708 223.342L42.7011 176.132Z" fill="#002882"/>
<path d="M83.5979 243.316V200.342L58.3381 214.868L83.5979 243.316Z" fill="#002882"/>
<path d="M68.5623 230L56.5338 215.474L45.7082 263.895L68.5623 230Z" fill="#002882"/>
<path d="M40.2954 271.763L54.7295 214.868L7.21708 225.763L40.2954 271.763Z" fill="#002882"/>
<path d="M70.3665 231.211L43.9039 269.342L76.9822 294.763L83.5979 245.737L70.3665 231.211Z" fill="#002882"/>
<path d="M113.47 38.0545V44.6987L151.087 25.9741L145.713 0.605263L113.47 38.0545Z" fill="#002882"/>
<path d="M160.044 36.8465L151.087 27.7862L137.951 35.0344L127.8 64.0274L142.131 58.5912L160.044 36.8465Z" fill="#002882"/>
<path d="M125.412 64.6314L135.563 36.2425L113.47 46.5108L111.679 65.8395L125.412 64.6314Z" fill="#002882"/>
<path d="M100.931 41.6786L111.679 46.5108L109.887 65.2354L87.1978 57.3832L100.931 41.6786Z" fill="#002882"/>
<path d="M86.0036 38.6585L99.1397 41.0746L86.0036 55.5711V38.6585Z" fill="#002882"/>
<path d="M86.0036 78.5239V59.1952L108.693 67.0475L86.0036 78.5239Z" fill="#002882"/>
<path d="M111.082 67.6515L124.218 66.4435C104.055 72.5455 96.8138 78.2267 96.1542 95.4365L86.0036 88.1882V80.336L111.082 67.6515Z" fill="#002882"/>
<path d="M120.635 73.6917C134.368 86.3762 115.261 109.933 97.9455 96.0405L99.1397 88.1882C105.337 103.567 132.643 90.4855 114.872 74.4474L120.635 73.6917Z" fill="#002882"/>
<path d="M129.592 64.6314C127.402 67.0475 122.904 71.8797 122.426 71.8797C138.548 91.8123 115.261 111.745 96.7513 97.8525L95.5917 117.785L106.902 118.993L130.786 105.101C133.345 88.6536 134.17 79.6677 129.592 64.6314Z" fill="#002882"/>
<path d="M143.325 82.148L132.577 67.0475C134.342 72.5682 135.127 75.7908 135.563 82.148H143.325Z" fill="#002882"/>
<path d="M142.131 60.4033L133.174 64.0274L145.713 82.148L154.67 79.1279L142.131 60.4033Z" fill="#002882"/>
<path d="M145.713 84.5641L155.864 81.544L158.849 109.933H145.116L145.713 84.5641Z" fill="#002882"/>
<path d="M135.563 83.9601L143.922 84.5641L142.728 109.933L132.577 105.101C134.855 97.0268 135.021 92.3182 135.563 83.9601Z" fill="#002882"/>
<path d="M117.278 115.605L131.383 106.913L140.936 111.745L120.038 129.262L117.278 115.605Z" fill="#002882"/>
<path d="M142.728 112.349H159.446L149.296 142.55L122.426 129.866L142.728 112.349Z" fill="#002882"/>
<path d="M131.383 135.906L167.209 177.583L150.49 144.966L131.383 135.906Z" fill="#002882"/>
<path d="M127.8 172.751L128.995 136.51L162.432 176.375L127.8 172.751Z" fill="#002882"/>
<path d="M164.223 178.791L169 224.697H165.417L127.8 174.563L164.223 178.791Z" fill="#002882"/>
<path d="M120.038 131.678L86.0036 144.966V155.839L112.276 176.375L125.412 172.751L127.203 134.698L120.038 131.678Z" fill="#002882"/>
<path d="M110.485 176.979L86.0036 158.255V186.04L110.485 176.979Z" fill="#002882"/>
<path d="M112.276 212.616L125.412 174.563L86.0036 188.456V198.724L112.276 212.616Z" fill="#002882"/>
<path d="M126.606 176.375L114.664 213.22L161.835 223.489L126.606 176.375Z" fill="#002882"/>
<path d="M86.0036 243.421V200.536L111.082 215.032L86.0036 243.421Z" fill="#002882"/>
<path d="M100.931 230.133L112.873 215.636L123.621 263.958L100.931 230.133Z" fill="#002882"/>
<path d="M128.995 271.81L114.664 215.032L161.835 225.905L128.995 271.81Z" fill="#002882"/>
<path d="M99.1397 231.341L125.412 269.394L92.5716 294.763L86.0036 245.838L99.1397 231.341Z" fill="#002882"/>
<path d="M67.3594 84.1316C67.3594 88.4772 63.859 92 59.5409 92C55.2229 92 51.7224 88.4772 51.7224 84.1316C51.7224 79.786 55.2229 76.2632 59.5409 76.2632C63.859 76.2632 67.3594 79.786 67.3594 84.1316Z" fill="#002882"/>
<path d="M117.879 84.1316C117.879 88.4772 114.379 92 110.061 92C105.742 92 102.242 88.4772 102.242 84.1316C102.242 79.786 105.742 76.2632 110.061 76.2632C114.379 76.2632 117.879 79.786 117.879 84.1316Z" fill="#002882"/>
<path d="M83.5979 134.368L54.7295 116.816L51.7224 129.866L83.5979 142.237V134.368Z" fill="#002882"/>
<path d="M74.5765 96.8421L83.5979 89.5789V131.678L63.7509 120.447L75.7794 118.993L74.5765 96.8421Z" fill="#002882"/>
<path d="M94.96 97.2485L86.0036 90.0003V131.678L105.851 120.447L93.2206 118.993L94.96 97.2485Z" fill="#002882"/>
<path d="M86.0036 134.368L114.872 116.816L117.278 129.866L86.0036 142.237V134.368Z" fill="#002882"/>
<path d="M83.5979 265.105L76.9822 310.5L83.5979 322V265.105Z" fill="#002882"/>
<path d="M85.4021 265.105L92.6192 310.5L85.4021 322V265.105Z" fill="#002882"/>
</svg>
