<svg width="23" height="20" viewBox="0 0 23 20" fill="none" xmlns="http://www.w3.org/2000/svg">
<g clip-path="url(#clip0_118_2430)">
<path d="M22.6837 3.76953L15.6867 0C14.9644 1.08594 13.3651 1.84375 11.5 1.84375C9.63482 1.84375 8.0356 1.08594 7.31326 0L0.316224 3.76953C0.0323178 3.92578 -0.0826822 4.30078 0.0574741 4.60938L2.1131 9.08203C2.25685 9.39062 2.60185 9.51562 2.88576 9.36328L4.91982 8.28125C5.30076 8.07812 5.74638 8.37891 5.74638 8.84375V18.75C5.74638 19.4414 6.26029 20 6.89638 20H16.0964C16.7325 20 17.2464 19.4414 17.2464 18.75V8.83984C17.2464 8.37891 17.692 8.07422 18.0729 8.27734L20.107 9.35938C20.3909 9.51562 20.7359 9.39062 20.8797 9.07812L22.9389 4.60938C23.0826 4.30078 22.9676 3.92188 22.6837 3.76953Z" fill="white"/>
</g>
<defs>
<clipPath id="clip0_118_2430">
<rect width="23" height="20" fill="white"/>
</clipPath>
</defs>
</svg>
