<svg width="141" height="266" viewBox="0 0 141 266" fill="none" xmlns="http://www.w3.org/2000/svg">
<path d="M46.5 31V36.5L15 21L19.5 0L46.5 31Z" fill="#002882"/>
<path d="M7.5 30L15 22.5L26 28.5L34.5 52.5L22.5 48L7.5 30Z" fill="#002882"/>
<path d="M36.5 53L28 29.5L46.5 38L48 54L36.5 53Z" fill="#002882"/>
<path d="M57 34L48 38L49.5 53.5L68.5 47L57 34Z" fill="#002882"/>
<path d="M69.5 31.5L58.5 33.5L69.5 45.5V31.5Z" fill="#002882"/>
<path d="M69.5 64.5V48.5L50.5 55L69.5 64.5Z" fill="#002882"/>
<path d="M48.5 55.5L37.5 54.5C52.4207 59.3889 60.0153 62.7319 61 78.5L69.5 72.5V66L48.5 55.5Z" fill="#002882"/>
<path d="M40.5 60.5C29 71 45 90.5 59.5 79L57.5 72C53.5 87 28 73.5 47 60.5H40.5Z" fill="#002882"/>
<path d="M33 53C34.8333 55 38.6 59 39 59C25.5 75.5 45 92 60.5 80.5L61.5 97L52 98L32 86.5C29.8569 72.8853 29.166 65.4468 33 53Z" fill="#002882"/>
<path d="M21.5 67.5L30.5 55C29.022 59.5699 28.3644 62.2376 28 67.5H21.5Z" fill="#002882"/>
<path d="M22.5 49.5L30 52.5L19.5 67.5L12 65L22.5 49.5Z" fill="#002882"/>
<path d="M19.5 69.5L11 67L8.5 90.5H20L19.5 69.5Z" fill="#002882"/>
<path d="M28 69L21 69.5L22 90.5L30.5 86.5C28.5924 79.8165 28.4538 75.9187 28 69Z" fill="#002882"/>
<path d="M44 96L31.5 88L23.5 92L41 106.5L44 96Z" fill="#002882"/>
<path d="M22 92.5H8L16.5 117.5L39 107L22 92.5Z" fill="#002882"/>
<path d="M31.5 112L1.5 146.5L15.5 119.5L31.5 112Z" fill="#002882"/>
<path d="M34.5 142.5L33.5 112.5L5.5 145.5L34.5 142.5Z" fill="#002882"/>
<path d="M4 147.5L0 185.5H3L34.5 144L4 147.5Z" fill="#002882"/>
<path d="M41 108.5L69.5 119.5V128.5L47.5 145.5L36.5 142.5L35 111L41 108.5Z" fill="#002882"/>
<path d="M49 146L69.5 130.5V153.5L49 146Z" fill="#002882"/>
<path d="M47.5 175.5L36.5 144L69.5 155.5V164L47.5 175.5Z" fill="#002882"/>
<path d="M35.5 145.5L45.5 176L6 184.5L35.5 145.5Z" fill="#002882"/>
<path d="M69.5 201V165.5L48.5 177.5L69.5 201Z" fill="#002882"/>
<path d="M57 190L47 178L38 218L57 190Z" fill="#002882"/>
<path d="M33.5 224.5L45.5 177.5L6 186.5L33.5 224.5Z" fill="#002882"/>
<path d="M58.5 191L36.5 222.5L64 243.5L69.5 203L58.5 191Z" fill="#002882"/>
<path d="M94.3345 31.4363V36.9251L125.608 21.4569L121.14 0.5L94.3345 31.4363Z" fill="#002882"/>
<path d="M133.054 30.4384L125.608 22.9538L114.687 28.9415L106.248 52.8922L118.162 48.4014L133.054 30.4384Z" fill="#002882"/>
<path d="M104.263 53.3912L112.701 29.9394L94.3345 38.422L92.8453 54.3891L104.263 53.3912Z" fill="#002882"/>
<path d="M83.9101 34.4302L92.8453 38.422L91.3561 53.8901L72.4928 47.4035L83.9101 34.4302Z" fill="#002882"/>
<path d="M71.5 31.9353L82.4209 33.9312L71.5 45.9066V31.9353Z" fill="#002882"/>
<path d="M71.5 64.8676V48.9004L90.3633 55.3871L71.5 64.8676Z" fill="#002882"/>
<path d="M92.3489 55.886L103.27 54.8881C86.5071 59.9289 80.4872 64.622 79.9388 78.8388L71.5 72.8511V66.3645L92.3489 55.886Z" fill="#002882"/>
<path d="M100.291 60.8758C111.709 71.3542 95.8237 90.8142 81.4281 79.3378L82.4209 72.8511C87.5734 85.5556 110.274 74.7488 95.5 61.5L100.291 60.8758Z" fill="#002882"/>
<path d="M107.737 53.3912C105.917 55.3871 102.178 59.3788 101.781 59.3788C115.183 75.845 95.8237 92.3111 80.4352 80.8347L79.4712 97.3008L88.8741 98.2988L108.73 86.8224C110.858 73.2356 111.544 65.8124 107.737 53.3912Z" fill="#002882"/>
<path d="M119.155 67.8614L110.219 55.3871C111.687 59.9476 112.34 62.6098 112.701 67.8614H119.155Z" fill="#002882"/>
<path d="M118.162 49.8984L110.716 52.8922L121.14 67.8614L128.586 65.3665L118.162 49.8984Z" fill="#002882"/>
<path d="M121.14 69.8573L129.579 67.3624L132.061 90.8142H120.644L121.14 69.8573Z" fill="#002882"/>
<path d="M112.701 69.3583L119.651 69.8573L118.658 90.8142L110.219 86.8224C112.113 80.1526 112.251 76.2629 112.701 69.3583Z" fill="#002882"/>
<path d="M97.5 95.5L109.227 88.3193L117.169 92.3111L99.795 106.781L97.5 95.5Z" fill="#002882"/>
<path d="M118.658 92.8101H132.558L124.119 117.759L101.781 107.28L118.658 92.8101Z" fill="#002882"/>
<path d="M109.227 112.27L139.011 146.699L125.112 119.755L109.227 112.27Z" fill="#002882"/>
<path d="M106.248 142.707L107.241 112.769L135.04 145.701L106.248 142.707Z" fill="#002882"/>
<path d="M136.529 147.697L140.5 185.619H137.522L106.248 144.204L136.529 147.697Z" fill="#002882"/>
<path d="M99.795 108.777L71.5 119.755V128.736L93.3417 145.701L104.263 142.707L105.752 111.272L99.795 108.777Z" fill="#002882"/>
<path d="M91.8525 146.2L71.5 130.732V153.685L91.8525 146.2Z" fill="#002882"/>
<path d="M93.3417 175.64L104.263 144.204L71.5 155.681V164.163L93.3417 175.64Z" fill="#002882"/>
<path d="M105.255 145.701L95.3273 176.139L134.543 184.621L105.255 145.701Z" fill="#002882"/>
<path d="M71.5 201.087V165.66L92.3489 177.636L71.5 201.087Z" fill="#002882"/>
<path d="M83.9101 190.11L93.8381 178.134L102.773 218.052L83.9101 190.11Z" fill="#002882"/>
<path d="M107.241 224.539L95.3273 177.636L134.543 186.617L107.241 224.539Z" fill="#002882"/>
<path d="M82.4209 191.108L104.263 222.543L76.9604 243.5L71.5 203.083L82.4209 191.108Z" fill="#002882"/>
<path d="M56 69.5C56 73.0899 53.0899 76 49.5 76C45.9101 76 43 73.0899 43 69.5C43 65.9101 45.9101 63 49.5 63C53.0899 63 56 65.9101 56 69.5Z" fill="#002882"/>
<path d="M98 69.5C98 73.0899 95.0899 76 91.5 76C87.9101 76 85 73.0899 85 69.5C85 65.9101 87.9101 63 91.5 63C95.0899 63 98 65.9101 98 69.5Z" fill="#002882"/>
<path d="M69.5 111L45.5 96.5L43 107.28L69.5 117.5V111Z" fill="#002882"/>
<path d="M62 80L69.5 74V108.777L53 99.5L63 98.2988L62 80Z" fill="#002882"/>
<path d="M78.946 80.3357L71.5 74.3481V108.777L88 99.5L77.5 98.2988L78.946 80.3357Z" fill="#002882"/>
<path d="M71.5 111L95.5 96.5L97.5 107.28L71.5 117.5V111Z" fill="#002882"/>
<path d="M69.5 219L64 256.5L69.5 266V219Z" fill="#002882"/>
<path d="M71 219L77 256.5L71 266V219Z" fill="#002882"/>
</svg>
